<svg width="53" height="52" viewBox="0 0 53 52" fill="none" xmlns="http://www.w3.org/2000/svg">
<mask id="path-1-inside-1" fill="white">
<path fill-rule="evenodd" clip-rule="evenodd" d="M26.5 52C40.8594 52 52.5 40.3594 52.5 26C52.5 11.6406 40.8594 0 26.5 0C12.1406 0 0.5 11.6406 0.5 26C0.5 40.3594 12.1406 52 26.5 52ZM26.5 37.1429C32.654 37.1429 37.6429 32.154 37.6429 26C37.6429 19.846 32.654 14.8571 26.5 14.8571C20.346 14.8571 15.3571 19.846 15.3571 26C15.3571 32.154 20.346 37.1429 26.5 37.1429Z"/>
</mask>
<path fill-rule="evenodd" clip-rule="evenodd" d="M26.5 52C40.8594 52 52.5 40.3594 52.5 26C52.5 11.6406 40.8594 0 26.5 0C12.1406 0 0.5 11.6406 0.5 26C0.5 40.3594 12.1406 52 26.5 52ZM26.5 37.1429C32.654 37.1429 37.6429 32.154 37.6429 26C37.6429 19.846 32.654 14.8571 26.5 14.8571C20.346 14.8571 15.3571 19.846 15.3571 26C15.3571 32.154 20.346 37.1429 26.5 37.1429Z" fill="#3EC865"/>
<path d="M51 26C51 39.531 40.031 50.5 26.5 50.5V53.5C41.6878 53.5 54 41.1878 54 26H51ZM26.5 1.5C40.031 1.5 51 12.469 51 26H54C54 10.8122 41.6878 -1.5 26.5 -1.5V1.5ZM2 26C2 12.469 12.969 1.5 26.5 1.5V-1.5C11.3122 -1.5 -1 10.8122 -1 26H2ZM26.5 50.5C12.969 50.5 2 39.531 2 26H-1C-1 41.1878 11.3122 53.5 26.5 53.5V50.5ZM36.1429 26C36.1429 31.3256 31.8256 35.6429 26.5 35.6429V38.6429C33.4825 38.6429 39.1429 32.9825 39.1429 26H36.1429ZM26.5 16.3571C31.8256 16.3571 36.1429 20.6744 36.1429 26H39.1429C39.1429 19.0175 33.4825 13.3571 26.5 13.3571V16.3571ZM16.8571 26C16.8571 20.6744 21.1744 16.3571 26.5 16.3571V13.3571C19.5175 13.3571 13.8571 19.0175 13.8571 26H16.8571ZM26.5 35.6429C21.1744 35.6429 16.8571 31.3256 16.8571 26H13.8571C13.8571 32.9825 19.5175 38.6429 26.5 38.6429V35.6429Z" fill="black" mask="url(#path-1-inside-1)"/>
<mask id="path-3-inside-2" fill="white">
<path fill-rule="evenodd" clip-rule="evenodd" d="M35.215 1.49659C32.4906 0.527556 29.5569 0 26.5 0C23.4431 0 20.5094 0.527556 17.785 1.49659L20.9345 16.3444C22.5722 15.3985 24.4729 14.8571 26.5 14.8571C28.5272 14.8571 30.4279 15.3985 32.0655 16.3444L35.215 1.49659Z"/>
</mask>
<path fill-rule="evenodd" clip-rule="evenodd" d="M35.215 1.49659C32.4906 0.527556 29.5569 0 26.5 0C23.4431 0 20.5094 0.527556 17.785 1.49659L20.9345 16.3444C22.5722 15.3985 24.4729 14.8571 26.5 14.8571C28.5272 14.8571 30.4279 15.3985 32.0655 16.3444L35.215 1.49659Z" fill="#FBFBFB"/>
<path d="M35.215 1.49659L36.6824 1.80785L36.9548 0.523362L35.7177 0.0833273L35.215 1.49659ZM17.785 1.49659L17.2823 0.0833264L16.0452 0.52336L16.3177 1.80785L17.785 1.49659ZM20.9345 16.3444L19.4672 16.6557L19.8959 18.6767L21.6848 17.6433L20.9345 16.3444ZM32.0655 16.3444L31.3152 17.6433L33.1041 18.6767L33.5328 16.6557L32.0655 16.3444ZM35.7177 0.0833273C32.8342 -0.942301 29.7306 -1.5 26.5 -1.5V1.5C29.3833 1.5 32.1471 1.99741 34.7123 2.90985L35.7177 0.0833273ZM26.5 -1.5C23.2694 -1.5 20.1658 -0.942301 17.2823 0.0833264L18.2877 2.90985C20.853 1.99741 23.6168 1.5 26.5 1.5V-1.5ZM22.4019 16.0332L19.2524 1.18533L16.3177 1.80785L19.4672 16.6557L22.4019 16.0332ZM26.5 13.3571C24.2025 13.3571 22.0439 13.9714 20.1843 15.0455L21.6848 17.6433C23.1005 16.8256 24.7433 16.3571 26.5 16.3571V13.3571ZM32.8158 15.0455C30.9562 13.9714 28.7975 13.3571 26.5 13.3571V16.3571C28.2568 16.3571 29.8996 16.8256 31.3152 17.6433L32.8158 15.0455ZM33.7477 1.18533L30.5981 16.0332L33.5328 16.6557L36.6824 1.80785L33.7477 1.18533Z" fill="black" mask="url(#path-3-inside-2)"/>
<mask id="path-5-inside-3" fill="white">
<path fill-rule="evenodd" clip-rule="evenodd" d="M17.785 50.5034C20.5094 51.4724 23.4431 52 26.5 52C29.5569 52 32.4906 51.4724 35.215 50.5034L32.0655 35.6556C30.4278 36.6015 28.5271 37.1429 26.5 37.1429C24.4728 37.1429 22.5721 36.6015 20.9345 35.6556L17.785 50.5034Z"/>
</mask>
<path fill-rule="evenodd" clip-rule="evenodd" d="M17.785 50.5034C20.5094 51.4724 23.4431 52 26.5 52C29.5569 52 32.4906 51.4724 35.215 50.5034L32.0655 35.6556C30.4278 36.6015 28.5271 37.1429 26.5 37.1429C24.4728 37.1429 22.5721 36.6015 20.9345 35.6556L17.785 50.5034Z" fill="#FBFBFB"/>
<path d="M17.785 50.5034L16.3176 50.1922L16.0452 51.4766L17.2823 51.9167L17.785 50.5034ZM35.215 50.5034L35.7177 51.9167L36.9548 51.4766L36.6823 50.1922L35.215 50.5034ZM32.0655 35.6556L33.5328 35.3443L33.1041 33.3233L31.3152 34.3567L32.0655 35.6556ZM20.9345 35.6556L21.6848 34.3567L19.8959 33.3233L19.4672 35.3443L20.9345 35.6556ZM17.2823 51.9167C20.1658 52.9423 23.2694 53.5 26.5 53.5L26.5 50.5C23.6167 50.5 20.8529 50.0026 18.2877 49.0901L17.2823 51.9167ZM26.5 53.5C29.7306 53.5 32.8342 52.9423 35.7177 51.9167L34.7123 49.0901C32.147 50.0026 29.3832 50.5 26.5 50.5L26.5 53.5ZM30.5981 35.9668L33.7476 50.8147L36.6823 50.1922L33.5328 35.3443L30.5981 35.9668ZM26.5 38.6429C28.7975 38.6429 30.9561 38.0286 32.8157 36.9545L31.3152 34.3567C29.8995 35.1744 28.2567 35.6429 26.5 35.6429L26.5 38.6429ZM20.1842 36.9545C22.0438 38.0286 24.2025 38.6429 26.5 38.6429L26.5 35.6429C24.7432 35.6429 23.1004 35.1744 21.6848 34.3567L20.1842 36.9545ZM19.2523 50.8147L22.4019 35.9668L19.4672 35.3443L16.3176 50.1922L19.2523 50.8147Z" fill="black" mask="url(#path-5-inside-3)"/>
<mask id="path-7-inside-4" fill="white">
<path fill-rule="evenodd" clip-rule="evenodd" d="M51.0034 34.7151C51.9724 31.9907 52.5 29.057 52.5 26C52.5 22.9431 51.9724 20.0094 51.0034 17.285L36.1556 20.4346C37.1015 22.0722 37.6429 23.9729 37.6429 26C37.6429 28.0272 37.1015 29.9279 36.1556 31.5655L51.0034 34.7151Z"/>
</mask>
<path fill-rule="evenodd" clip-rule="evenodd" d="M51.0034 34.7151C51.9724 31.9907 52.5 29.057 52.5 26C52.5 22.9431 51.9724 20.0094 51.0034 17.285L36.1556 20.4346C37.1015 22.0722 37.6429 23.9729 37.6429 26C37.6429 28.0272 37.1015 29.9279 36.1556 31.5655L51.0034 34.7151Z" fill="#FBFBFB"/>
<path d="M51.0034 34.7151L50.6922 36.1824L51.9766 36.4549L52.4167 35.2177L51.0034 34.7151ZM51.0034 17.285L52.4167 16.7824L51.9766 15.5452L50.6922 15.8177L51.0034 17.285ZM36.1556 20.4346L35.8443 18.9672L33.8233 19.3959L34.8567 21.1849L36.1556 20.4346ZM36.1556 31.5655L34.8567 30.8152L33.8233 32.6042L35.8443 33.0329L36.1556 31.5655ZM52.4167 35.2177C53.4423 32.3342 54 29.2306 54 26L51 26C51 28.8833 50.5026 31.6471 49.5901 34.2124L52.4167 35.2177ZM54 26C54 22.7695 53.4423 19.6659 52.4167 16.7824L49.5901 17.7877C50.5026 20.353 51 23.1168 51 26L54 26ZM36.4668 21.9019L51.3147 18.7524L50.6922 15.8177L35.8443 18.9672L36.4668 21.9019ZM39.1429 26C39.1429 23.7025 38.5286 21.5439 37.4545 19.6843L34.8567 21.1849C35.6744 22.6005 36.1429 24.2433 36.1429 26L39.1429 26ZM37.4545 32.3158C38.5286 30.4562 39.1429 28.2976 39.1429 26L36.1429 26C36.1429 27.7568 35.6744 29.3996 34.8567 30.8152L37.4545 32.3158ZM51.3147 33.2477L36.4668 30.0982L35.8443 33.0329L50.6922 36.1824L51.3147 33.2477Z" fill="black" mask="url(#path-7-inside-4)"/>
<mask id="path-9-inside-5" fill="white">
<path fill-rule="evenodd" clip-rule="evenodd" d="M1.99659 17.2849C1.02756 20.0093 0.500002 22.943 0.500001 26C0.500001 29.0569 1.02756 31.9906 1.99659 34.715L16.8444 31.5654C15.8985 29.9278 15.3571 28.0271 15.3571 26C15.3571 23.9728 15.8985 22.0721 16.8444 20.4345L1.99659 17.2849Z"/>
</mask>
<path fill-rule="evenodd" clip-rule="evenodd" d="M1.99659 17.2849C1.02756 20.0093 0.500002 22.943 0.500001 26C0.500001 29.0569 1.02756 31.9906 1.99659 34.715L16.8444 31.5654C15.8985 29.9278 15.3571 28.0271 15.3571 26C15.3571 23.9728 15.8985 22.0721 16.8444 20.4345L1.99659 17.2849Z" fill="#FBFBFB"/>
<path d="M1.99659 17.2849L2.30785 15.8176L1.02336 15.5451L0.583329 16.7823L1.99659 17.2849ZM1.99659 34.715L0.583327 35.2176L1.02336 36.4548L2.30785 36.1823L1.99659 34.715ZM16.8444 31.5654L17.1557 33.0328L19.1767 32.6041L18.1433 30.8151L16.8444 31.5654ZM16.8444 20.4345L18.1433 21.1848L19.1767 19.3958L17.1557 18.9671L16.8444 20.4345ZM0.583329 16.7823C-0.442299 19.6658 -0.999998 22.7694 -0.999999 26L2 26C2 23.1167 2.49742 20.3529 3.40986 17.7876L0.583329 16.7823ZM-0.999999 26C-0.999999 29.2305 -0.442301 32.3341 0.583327 35.2176L3.40985 34.2123C2.49741 31.647 2 28.8832 2 26L-0.999999 26ZM16.5332 30.0981L1.68533 33.2476L2.30785 36.1823L17.1557 33.0328L16.5332 30.0981ZM13.8571 26C13.8571 28.2975 14.4714 30.4561 15.5455 32.3157L18.1433 30.8151C17.3256 29.3995 16.8571 27.7567 16.8571 26L13.8571 26ZM15.5455 19.6842C14.4714 21.5438 13.8571 23.7024 13.8571 26L16.8571 26C16.8571 24.2432 17.3256 22.6004 18.1433 21.1848L15.5455 19.6842ZM1.68534 18.7523L16.5332 21.9018L17.1557 18.9671L2.30785 15.8176L1.68534 18.7523Z" fill="black" mask="url(#path-9-inside-5)"/>
</svg>
