<svg width="17" height="16" viewBox="0 0 17 16" fill="none" xmlns="http://www.w3.org/2000/svg">
<path fill-rule="evenodd" clip-rule="evenodd" d="M16.75 16H13.6731V10.3967C13.6731 8.85961 13.0215 8.00218 11.8531 8.00218C10.5815 8.00218 9.82692 8.89563 9.82692 10.3967V16H6.75V5.59243H9.82692V6.76288C9.82692 6.76288 10.7923 5 12.9677 5C15.1438 5 16.75 6.3818 16.75 9.24148C16.75 12.1004 16.75 16 16.75 16ZM2.25031 3C1.42151 3 0.75 2.32819 0.75 1.4997C0.75 0.671815 1.42151 0 2.25031 0C3.07849 0 3.75 0.671815 3.75 1.4997C3.75061 2.32819 3.07849 3 2.25031 3ZM0.75 16H3.75V6H0.75V16Z" fill="black"/>
</svg>
