<svg width="43" height="55" viewBox="0 0 43 55" fill="none" xmlns="http://www.w3.org/2000/svg">
<path d="M4.5 23.9781C2.42893 23.9781 0.75 25.6571 0.75 27.7281V47C0.75 50.7279 3.77207 53.75 7.5 53.75H35.02C38.7479 53.75 41.77 50.7279 41.77 47V27.7281C41.77 25.6571 40.0911 23.9781 38.02 23.9781H4.5Z" fill="#3EC865" stroke="black" stroke-width="1.5" stroke-linejoin="round"/>
<mask id="path-2-outside-1" maskUnits="userSpaceOnUse" x="15.0963" y="30.8058" width="12" height="16" fill="black">
<rect fill="white" x="15.0963" y="30.8058" width="12" height="16"/>
<path fill-rule="evenodd" clip-rule="evenodd" d="M22.922 40.0307C22.493 39.4475 22.8247 38.5832 23.3762 38.114C24.0288 37.5588 24.4409 36.7436 24.4409 35.835C24.4409 34.162 23.044 32.8058 21.3209 32.8058C19.5978 32.8058 18.2009 34.162 18.2009 35.835C18.2009 36.7436 18.613 37.5588 19.2656 38.114C19.8171 38.5832 20.1488 39.4475 19.7198 40.0307L17.2926 43.3297C16.8068 43.9901 17.2783 44.9224 18.0981 44.9224H24.5437C25.3635 44.9224 25.835 43.9901 25.3492 43.3297L22.922 40.0307Z"/>
</mask>
<path fill-rule="evenodd" clip-rule="evenodd" d="M22.922 40.0307C22.493 39.4475 22.8247 38.5832 23.3762 38.114C24.0288 37.5588 24.4409 36.7436 24.4409 35.835C24.4409 34.162 23.044 32.8058 21.3209 32.8058C19.5978 32.8058 18.2009 34.162 18.2009 35.835C18.2009 36.7436 18.613 37.5588 19.2656 38.114C19.8171 38.5832 20.1488 39.4475 19.7198 40.0307L17.2926 43.3297C16.8068 43.9901 17.2783 44.9224 18.0981 44.9224H24.5437C25.3635 44.9224 25.835 43.9901 25.3492 43.3297L22.922 40.0307Z" fill="white"/>
<path d="M17.2926 43.3297L16.0844 42.4408H16.0844L17.2926 43.3297ZM25.3492 43.3297L24.141 44.2187L25.3492 43.3297ZM22.9409 35.835C22.9409 36.2769 22.7429 36.6834 22.4042 36.9715L24.3481 39.2565C25.3147 38.4342 25.9409 37.2103 25.9409 35.835H22.9409ZM21.3209 34.3058C22.2577 34.3058 22.9409 35.0319 22.9409 35.835H25.9409C25.9409 33.2921 23.8303 31.3058 21.3209 31.3058V34.3058ZM19.7009 35.835C19.7009 35.0319 20.3841 34.3058 21.3209 34.3058V31.3058C18.8114 31.3058 16.7009 33.2921 16.7009 35.835H19.7009ZM20.2376 36.9715C19.8989 36.6835 19.7009 36.2769 19.7009 35.835H16.7009C16.7009 37.2103 17.327 38.4342 18.2937 39.2566L20.2376 36.9715ZM18.5009 44.2187L20.928 40.9196L18.5115 39.1418L16.0844 42.4408L18.5009 44.2187ZM18.0981 43.4224C18.508 43.4224 18.7438 43.8885 18.5009 44.2187L16.0844 42.4408C14.8698 44.0917 16.0486 46.4224 18.0981 46.4224V43.4224ZM24.5437 43.4224H18.0981V46.4224H24.5437V43.4224ZM24.141 44.2187C23.8981 43.8885 24.1338 43.4224 24.5437 43.4224V46.4224C26.5932 46.4224 27.772 44.0917 26.5574 42.4408L24.141 44.2187ZM21.7138 40.9196L24.141 44.2187L26.5574 42.4408L24.1303 39.1418L21.7138 40.9196ZM18.2937 39.2566C18.3174 39.2767 18.3471 39.3089 18.3736 39.3496C18.4003 39.3905 18.4128 39.4229 18.4169 39.4375C18.4212 39.4527 18.4113 39.4286 18.4182 39.3709C18.4261 39.306 18.4535 39.2206 18.5115 39.1418L20.928 40.9196C21.4899 40.1558 21.4901 39.2807 21.3038 38.6217C21.1203 37.9723 20.7272 37.388 20.2376 36.9715L18.2937 39.2566ZM22.4042 36.9715C21.9146 37.388 21.5215 37.9723 21.3379 38.6217C21.1517 39.2807 21.1518 40.1558 21.7138 40.9196L24.1303 39.1418C24.1883 39.2206 24.2157 39.306 24.2236 39.3709C24.2305 39.4286 24.2206 39.4527 24.2249 39.4375C24.229 39.4229 24.2414 39.3905 24.2682 39.3496C24.2947 39.3089 24.3244 39.2767 24.3481 39.2565L22.4042 36.9715Z" fill="black" mask="url(#path-2-outside-1)"/>
<path d="M21.26 8.06796C16.58 8.06796 15.54 11.0971 15.54 13.6214V23.2136H8.26001V12.6116C8.26001 8.06796 10.34 1 21.26 1C32.18 1 34.26 8.06796 34.26 12.6116V23.2136H26.98V13.6214C26.98 11.0971 25.94 8.06796 21.26 8.06796Z" fill="white" stroke="black" stroke-width="1.5"/>
</svg>
